<svg width="199" height="38" viewBox="0 0 199 38" fill="none" xmlns="http://www.w3.org/2000/svg"><path d="M96.5213 19.2442H91.7593V8.06514H85.5802V36.4426H91.7593V25.149H96.5213V36.4426H102.7V8.06514H96.5213V19.2442Z" fill="#FF0558"></path><path d="M49.7522 13.97H54.7409V36.4426H60.9201V13.97H65.6253V8.06514H49.7522V13.97Z" fill="#FF0558"></path><path d="M37.3373 8.06514L32.3486 36.4426H38.3577L39.0323 31.8564H44.7239L45.3872 36.4426H51.453L46.4076 8.06514H37.3373ZM39.7919 26.6968L41.5323 14.8872H42.2693L43.9785 26.6968H39.7919Z" fill="#FF0558"></path><path fillRule="evenodd" clipRule="evenodd" d="M26.6976 0L24.8482 27.1461L24.3512 27.1722L19.9528 7.96695H14.5178L11.2274 27.8668L10.5222 27.9039L7.5762 7.96695H0L6.89269 37.6466L14.5977 37.1331L17.1044 18.7107L17.8396 18.6703L21.1964 36.688L28.5708 36.1932L34.4271 0H26.6976Z" fill="#FF0558"></path><path d="M75.1492 7.77847C69.5936 7.77847 66.9292 10.8169 66.9292 15.5178V28.9899C66.9292 33.6908 69.5936 36.7292 75.1492 36.7292C80.7048 36.7292 83.3692 33.6908 83.3692 28.9899V24.117H77.19V29.5632C77.19 31.0537 76.6231 31.5697 75.1492 31.5697C73.6753 31.5697 73.1084 31.0537 73.1084 29.5632V14.9445C73.1084 13.454 73.6753 12.938 75.1492 12.938C76.6231 12.938 77.19 13.454 77.19 14.9445V18.1549H83.3692V15.5178C83.3692 10.8169 80.7048 7.77847 75.1492 7.77847Z" fill="#FF0558"></path><path d="M109.163 8.06514L104.174 36.4426H110.183L110.858 31.8564H116.55L117.213 36.4426H123.279L118.233 8.06514H109.163ZM111.618 26.6968L113.358 14.8872H114.095L115.804 26.6968H111.618Z" fill="#FF0558"></path><path d="M165.222 8.06543H158.986V36.4429H165.222C168.737 36.4429 171.061 35.067 172.195 32.5446C172.875 31.0541 173.045 29.6782 173.045 22.2255C173.045 14.8302 172.875 13.4543 172.195 11.9638C171.061 9.44131 168.737 8.06543 165.222 8.06543ZM168.737 30.9394C168.17 32.3153 166.979 33.0606 164.882 33.0606H162.671V11.4478H164.882C166.979 11.4478 168.17 12.1931 168.737 13.5689C169.19 14.5435 169.303 15.4035 169.303 22.2828C169.303 29.1049 169.19 29.9648 168.737 30.9394Z" fill="#292A32"></path><path d="M193.34 8.06543H187.728L182.512 36.4429H186.197L187.104 30.7101H193.907L194.871 36.4429H198.499L193.34 8.06543ZM187.671 27.4997L190.449 11.0465H190.562L193.34 27.4997H187.671Z" fill="#292A32"></path><path d="M179.848 8.06543H176.163V36.4429H179.848V8.06543Z" fill="#292A32"></path><path d="M136.65 8.06543H129.961V36.4429H133.589V23.2001H136.65C139.485 23.2001 141.299 22.3975 142.093 20.6203C142.489 19.5884 142.603 18.7858 142.603 15.6328C142.603 12.4797 142.489 11.6198 142.093 10.7025C141.299 8.86803 139.485 8.06543 136.65 8.06543ZM138.634 18.5565C138.238 19.5884 137.274 19.8177 135.743 19.8177H133.589V11.2185H135.743C137.274 11.2185 138.238 11.5051 138.634 12.4797C138.861 12.9957 138.918 13.2823 138.918 15.5181C138.918 17.6966 138.861 18.0979 138.634 18.5565Z" fill="#292A32"></path><path d="M145.267 36.4429H155.585V33.0606H148.952V23.0854H155.415V19.7031H148.952V11.4478H155.585V8.06543H145.267V36.4429Z" fill="#292A32"></path></svg>